<?xml version="1.0" encoding="UTF-8" standalone="no"?>
<svg
   xmlns:dc="http://purl.org/dc/elements/1.1/"
   xmlns:cc="http://creativecommons.org/ns#"
   xmlns:rdf="http://www.w3.org/1999/02/22-rdf-syntax-ns#"
   xmlns:svg="http://www.w3.org/2000/svg"
   xmlns="http://www.w3.org/2000/svg"
   id="svg8"
   version="1.1"
   viewBox="0 0 67.733332 67.733336"
   height="256"
   width="256">
  <defs
     id="defs2" />
  <metadata
     id="metadata5">
    <rdf:RDF>
      <cc:Work
         rdf:about="">
        <dc:format>image/svg+xml</dc:format>
        <dc:type
           rdf:resource="http://purl.org/dc/dcmitype/StillImage" />
        <dc:title></dc:title>
      </cc:Work>
    </rdf:RDF>
  </metadata>
  <g
     id="text821"
     style="font-style:normal;font-variant:normal;font-weight:normal;font-stretch:normal;font-size:50.26167297px;line-height:1.25;font-family:'Cooper Black';-inkscape-font-specification:'Cooper Black, ';letter-spacing:0px;word-spacing:0px;fill:#666666;fill-opacity:1;stroke:none;stroke-width:0.27923149"
     transform="scale(0.9475411,1.0553632)"
     aria-label="W">
    <path
       id="path910"
       style="font-style:normal;font-variant:normal;font-weight:normal;font-stretch:normal;font-size:50.26167297px;font-family:'Cooper Black';-inkscape-font-specification:'Cooper Black, ';fill:#666666;fill-opacity:1;stroke-width:0.27923149"
       d="m 32.256694,24.015796 -0.711713,-1.717928 q -0.66263,-1.497052 -1.644303,-1.987888 -1.767012,-0.93259 -1.767012,-2.356016 0,-3.141355 9.424064,-3.141355 4.712032,0 7.166215,0.760797 0.834422,0.26996 1.325259,0.858964 0.515378,0.589004 0.515378,1.300717 0,0.613546 -0.245418,0.93259 -0.220876,0.319044 -1.276175,1.251633 -0.613546,0.515379 -0.613546,1.079841 0,0.858964 0.93259,2.846853 l 1.398884,2.994103 q 0.957132,2.036972 1.349801,2.601434 0.417211,0.539921 0.932589,0.539921 0.564463,0 0.957132,-0.638088 0.417211,-0.638088 1.055299,-2.503267 l 1.178008,-3.435856 q 0.490836,-1.47251 0.490836,-2.208765 0,-0.981674 -1.030757,-1.300718 -2.061514,-0.662629 -2.061514,-2.356015 0,-1.47251 1.59522,-2.110598 1.595219,-0.638088 5.251952,-0.638088 2.380557,0 3.705816,0.539921 1.840638,0.736255 1.840638,2.356016 0,0.711713 -0.343586,1.227091 -0.319044,0.515379 -1.325259,1.374343 -0.662629,0.564462 -1.030757,1.20255 -0.343585,0.638087 -1.07984,2.625976 l -4.294821,11.411952 q -3.21498,7.976095 -3.87761,9.497689 -0.662629,1.521594 -1.374342,2.724143 -0.53992,0.883506 -1.20255,1.227092 -0.662629,0.368127 -1.767012,0.368127 -1.47251,0 -2.380558,-0.638087 -0.883506,-0.638088 -1.497051,-2.110598 L 36.993268,35.059621 q -0.39267,-0.957131 -0.589004,-1.20255 -0.196335,-0.245418 -0.539921,-0.245418 -0.515378,0 -0.883506,0.613546 -0.368127,0.613545 -1.398884,3.165896 l -3.337689,8.295139 q -0.93259,2.257849 -1.791554,2.994104 -0.834422,0.711713 -2.552351,0.711713 -1.546135,0 -2.454183,-0.736255 -0.883506,-0.736255 -1.619761,-2.601434 L 12.795021,22.960498 q -0.564462,-1.423427 -0.785339,-1.668845 -0.196334,-0.26996 -1.300717,-0.858964 -1.2516333,-0.638088 -1.2516333,-2.159681 0,-3.460399 8.5896413,-3.460399 4.392988,0 6.356335,0.613546 1.889721,0.613546 1.889721,2.429641 0,0.564463 -0.09817,0.834423 -0.09817,0.245418 -0.711713,1.128924 -0.294502,0.466295 -0.294502,1.153466 0,1.227092 1.644303,5.104701 l 1.006215,2.356016 q 0.638088,1.47251 0.834423,1.791554 0.220876,0.294502 0.613545,0.294502 0.957132,0 1.963347,-2.724143 l 1.006215,-2.797769 q 0.122709,-0.294502 0.122709,-0.466295 0,-0.196335 -0.122709,-0.515379 z" />
  </g>
  <rect
     ry="10.583333"
     y="4.2333341"
     x="4.2333336"
     height="59.266666"
     width="59.266666"
     id="rect815-3"
     style="opacity:1;fill:none;fill-opacity:1;stroke:#666666;stroke-width:8.46666718;stroke-linecap:round;stroke-linejoin:round;stroke-miterlimit:4;stroke-dasharray:none;stroke-opacity:1;paint-order:normal" />
</svg>
